<?xml version="1.0" standalone="no"?>
<!DOCTYPE svg PUBLIC "-//W3C//DTD SVG 20010904//EN"
 "http://www.w3.org/TR/2001/REC-SVG-20010904/DTD/svg10.dtd">
<svg version="1.0" xmlns="http://www.w3.org/2000/svg"
 width="500.000000pt" height="500.000000pt" viewBox="0 0 500.000000 500.000000"
 preserveAspectRatio="xMidYMid meet">
<metadata>
Created by potrace 1.14, written by Peter Selinger 2001-2017
</metadata>
<g transform="translate(0.000000,500.000000) scale(0.100000,-0.100000)"
fill="#000000" stroke="none">
<path d="M2308 4935 c-1 -1 -34 -5 -73 -9 -38 -3 -81 -8 -95 -10 -14 -3 -43
-7 -65 -11 -22 -3 -47 -7 -55 -10 -8 -2 -26 -6 -40 -9 -57 -10 -233 -59 -275
-76 -11 -5 -58 -23 -104 -40 -47 -17 -134 -56 -194 -87 -539 -270 -950 -714
-1180 -1273 -31 -75 -90 -253 -102 -306 -61 -280 -69 -344 -69 -599 -1 -248
10 -355 58 -570 65 -295 217 -624 407 -882 103 -140 196 -241 368 -403 9 -8
54 -45 101 -81 358 -279 791 -456 1241 -506 141 -16 530 -8 632 13 12 2 39 7
59 9 21 3 68 12 105 21 38 9 79 18 92 20 46 9 261 83 348 121 640 275 1142
821 1358 1478 43 129 89 319 99 405 3 25 9 72 13 105 18 138 7 562 -17 644 -5
17 -9 34 -9 36 1 16 -15 100 -33 170 -59 241 -161 478 -310 725 -65 106 -208
281 -338 411 -201 201 -387 337 -629 458 -129 65 -332 146 -417 166 -10 3 -46
12 -79 20 -218 55 -360 72 -612 73 -100 0 -183 -1 -185 -3z m362 -419 c96 -8
226 -29 315 -51 33 -9 67 -17 75 -19 47 -12 179 -60 259 -95 412 -177 772
-514 984 -921 85 -163 92 -188 77 -261 -17 -78 -63 -131 -130 -149 -44 -12
-160 -9 -225 5 -164 35 -765 215 -791 236 -34 27 -195 75 -349 104 -109 20
-494 28 -640 13 -62 -7 -184 -27 -254 -42 -40 -9 -122 -38 -178 -63 -84 -36
-685 -217 -795 -238 -10 -2 -22 -7 -28 -10 -20 -12 -186 -17 -227 -6 -91 25
-136 89 -137 198 -1 68 2 77 58 188 223 436 589 778 1031 960 100 42 213 80
283 96 26 6 55 13 65 15 41 10 58 13 104 20 26 3 57 8 68 10 11 2 61 7 110 10
50 4 91 7 92 8 4 3 157 -2 233 -8z m-1942 -2340 c97 -35 272 -139 416 -249 45
-33 83 -63 86 -66 3 -3 43 -40 90 -81 47 -41 88 -78 91 -82 3 -5 43 -47 90
-95 116 -120 188 -207 260 -316 53 -80 149 -254 149 -271 0 -4 9 -25 19 -49
35 -76 53 -141 58 -214 5 -62 3 -75 -16 -101 -27 -38 -79 -56 -154 -54 -50 2
-79 12 -192 67 -137 67 -272 150 -385 238 -73 57 -265 246 -326 322 -119 148
-249 376 -318 557 -34 93 -86 282 -86 315 1 37 21 73 51 89 30 16 108 11 167
-10z m3714 15 c4 0 18 -16 32 -34 l25 -33 -19 -84 c-39 -178 -137 -425 -228
-575 -103 -169 -175 -260 -316 -401 -175 -174 -358 -305 -559 -399 -147 -69
-201 -87 -234 -79 -47 11 -102 43 -119 68 -29 45 -13 182 33 285 131 295 239
447 508 717 213 213 383 346 581 455 133 73 214 95 296 80z"/>
</g>
</svg>
